<?xml version="1.0" encoding="utf-8"?>
<!-- Generator: Adobe Illustrator 27.5.0, SVG Export Plug-In . SVG Version: 6.00 Build 0)  -->
<svg version="1.1" xmlns="http://www.w3.org/2000/svg" xmlns:xlink="http://www.w3.org/1999/xlink" x="0px" y="0px"
	 viewBox="0 0 1000 800" style="enable-background:new 0 0 1000 800;" xml:space="preserve">
<g id="background">
	<rect y="0" style="fill:#FFFFFF;" width="1000" height="800"/>
</g>
<g id="shadow">
	<g style="opacity:0.5;">
		<path style="fill:#EED5D5;" d="M470.705,651.551c-27.351,0.085-54.701,0.768-82.003,3.927c-10.294,1.191-20.373,3.81-30.69,4.866
			c-20.609,2.11-40.85,6.047-61.532,7.863c-16.655,1.462-33.38,2.325-49.987,4.18c-15.57,1.74-32.806,1.338-48.256-1.536
			c-11.438-2.127-22.928-3.325-34.173-6.742c-12.58-3.823-26.247-6.555-39.354-6.457c-18.69,0.14-36.893,0.157-54.779,6.906
			c-6.279,2.369-13.965,6.264-18.733,11.236c-10.915,11.382-12.392,39.783-1.494,51.589c18.356,19.869,57.534,27.665,83.264,28.033
			c28.195,0.403,55.585-1.773,83.821-3.053c26.237-1.189,52.409-2.881,78.69-2.822c53.676,0.122,107.359,0,160.938-3.729
			c50.339-3.503,100.804-2.301,151.253-2.301c51.733,0,103.117,0.423,154.477,7.573c22.378,3.115,45.177,4.206,67.667,6.389
			c20.142,1.955,39.498-0.039,59.56-1.845c16.846-1.517,33.582-6.017,48.886-13.623c12.115-6.021,33.711-24.726,37.427-39.097
			c10.415-40.29-146.782-39.322-170.918-39.231c-27,0.102-54.215,1.025-81.194-0.045c-11.349-0.45-22.53-2.757-33.606-5.285
			c-11.032-2.518-22.148-1.878-33.336-2.936c-46.656-4.413-93.415-3.768-140.219-3.768
			C501.182,651.643,485.944,651.504,470.705,651.551z"/>
	</g>
</g>
<g id="object">
	<g>
		<g>
			<path style="fill:#3B3387;" d="M922.614,328.728L744.75,295.552c-3.686-0.688-6.136-4.286-5.444-7.997l20.766-111.331
				c0.692-3.711,4.275-6.185,7.961-5.497l177.864,33.176c3.686,0.688,6.136,4.286,5.444,7.998L930.575,323.23
				C929.883,326.942,926.3,329.415,922.614,328.728z"/>
		</g>
		<g>
			<path style="fill:#D67086;" d="M791.136,245.461l-32.207-6.007c-0.344-0.064-0.573-0.398-0.509-0.742l4.441-23.81
				c0.064-0.344,0.398-0.573,0.742-0.509l32.207,6.007c0.344,0.064,0.573,0.398,0.509,0.742l-4.441,23.81
				C791.814,245.296,791.48,245.525,791.136,245.461z"/>
		</g>
		<g style="opacity:0.2;">
			<path style="fill:#292949;" d="M792.601,241.08l1.91-10.241c-9.611,6.301-25.252,7.339-34.708,7.323
				c0.654,1.015,1.7,1.772,2.97,2.009l24.521,4.574C789.751,245.203,792.139,243.554,792.601,241.08z"/>
		</g>
		<g>
			<g>
				
					<rect x="755.236" y="251.311" transform="matrix(0.983 0.1834 -0.1834 0.983 60.3731 -137.7219)" style="fill:#BABCBE;" width="39.347" height="12.583"/>
			</g>
			<g>
				
					<rect x="798.38" y="259.359" transform="matrix(0.983 0.1834 -0.1834 0.983 62.5804 -145.4969)" style="fill:#BABCBE;" width="39.347" height="12.583"/>
			</g>
			<g>
				
					<rect x="841.525" y="267.406" transform="matrix(0.983 0.1834 -0.1834 0.983 64.7863 -153.2691)" style="fill:#BABCBE;" width="39.347" height="12.583"/>
			</g>
			<g>
				
					<rect x="884.669" y="275.454" transform="matrix(0.983 0.1834 -0.1834 0.983 66.9946 -161.0461)" style="fill:#BABCBE;" width="39.347" height="12.583"/>
			</g>
		</g>
		<g>
			
				<rect x="838.006" y="292.683" transform="matrix(0.983 0.1834 -0.1834 0.983 68.9301 -156.2947)" style="fill:#BABCBE;" width="83.235" height="3.813"/>
		</g>
	</g>
	<g>
		<g>
			<g>
				<path style="fill:#353A85;" d="M158.85,443.329c-0.848-0.202-1.372-1.056-1.17-1.906l9.245-38.773
					c3.089-12.956-4.921-26.006-17.856-29.09c-12.935-3.084-25.972,4.948-29.061,17.904l-9.245,38.773
					c-0.203,0.85-1.055,1.375-1.904,1.173c-0.849-0.202-1.373-1.056-1.17-1.906l9.245-38.773
					c3.494-14.654,18.239-23.738,32.869-20.25c14.63,3.488,23.689,18.248,20.195,32.902l-9.245,38.773
					C160.551,443.006,159.698,443.531,158.85,443.329z"/>
			</g>
			<polygon style="fill:#999999;" points="159.355,563.135 155.033,554.044 193.839,432.888 197.856,437.099 205.28,440.644 			"/>
			<polygon style="fill:#999999;" points="197.856,437.099 169.814,533.65 205.28,440.644 			"/>
			<polygon style="fill:#666666;" points="75.08,404.571 193.928,432.909 157.76,554.99 36.227,524.234 			"/>
			<polygon style="fill:#BABCBE;" points="185.095,568.649 58.547,542.321 90.613,413.488 205.329,440.7 			"/>
			<polygon style="fill:#999999;" points="58.547,542.321 36.227,524.234 75.08,404.571 84.113,408.796 90.613,413.488 			"/>
			<polygon style="opacity:0.1;fill:#0F0F0F;" points="84.113,408.796 53.506,519.821 58.64,542.344 90.733,413.285 			"/>
			<polygon style="opacity:0.15;fill:#0F0F0F;" points="36.205,524.264 53.506,519.821 58.64,542.344 			"/>
			<g>
				<path style="fill:#292949;" d="M118.976,437.223c0.405-1.7-0.642-3.407-2.34-3.812c-1.698-0.405-3.402,0.646-3.808,2.346
					c-0.405,1.7,0.642,3.407,2.34,3.811C116.865,439.974,118.57,438.924,118.976,437.223z"/>
				<g>
					<path style="fill:#C4B9A1;" d="M117.658,436.909c0.232-0.972-0.367-1.947-1.337-2.178c-0.97-0.231-1.944,0.369-2.176,1.341
						c-0.232,0.972,0.367,1.947,1.337,2.178C116.452,438.481,117.426,437.881,117.658,436.909z"/>
				</g>
			</g>
			<g>
				<path style="fill:#292949;" d="M168.994,449.15c0.405-1.701-0.642-3.407-2.34-3.812c-1.698-0.405-3.402,0.646-3.808,2.346
					c-0.406,1.7,0.642,3.407,2.34,3.812C166.884,451.9,168.589,450.85,168.994,449.15z"/>
				<g>
					<path style="fill:#C4B9A1;" d="M167.677,448.835c0.232-0.972-0.367-1.947-1.337-2.178c-0.97-0.231-1.944,0.369-2.176,1.341
						c-0.232,0.972,0.367,1.947,1.337,2.178C166.471,450.407,167.445,449.807,167.677,448.835z"/>
				</g>
			</g>
			<g>
				<path style="fill:#353A85;" d="M165.606,449.673c-0.849-0.202-1.372-1.056-1.17-1.906l9.245-38.773
					c3.089-12.956-4.921-26.006-17.856-29.09c-12.935-3.084-25.972,4.948-29.061,17.904l-9.245,38.773
					c-0.203,0.85-1.055,1.375-1.904,1.173c-0.849-0.202-1.372-1.056-1.17-1.906l9.245-38.773
					c3.494-14.654,18.239-23.738,32.869-20.25c14.63,3.488,23.689,18.248,20.195,32.902L167.51,448.5
					C167.307,449.35,166.455,449.875,165.606,449.673z"/>
			</g>
		</g>
	</g>
	<g>
		<g>
			<polygon style="fill:#DDC8AC;" points="356.322,384.429 365.331,375.561 379.537,375.897 381.158,383.102 359.692,392.374 			"/>
		</g>
		<g>
			<g>
				<path style="fill:#292949;" d="M251.435,292.334c0,0,7.443,3.523,9.16,22.877c1.717,19.354,6.502,31.147,6.502,31.147
					s-5.681,4.502-11.062,2.748c-5.381-1.754-7.272-1.902-7.406-9.905c-0.134-8.003-5.608-44.968-5.608-44.968L251.435,292.334z"/>
			</g>
		</g>
		<g>
			<g>
				<path style="fill:#292949;" d="M237.655,302.441c7.554,0.18,14.75,5.353,17.34,12.463c2.969-4.567,3.567-10.594,1.553-15.659
					c-2.014-5.066-6.586-9.035-11.879-10.313c-3.805,3.42-6.181,8.389-6.455,13.503L237.655,302.441z"/>
			</g>
		</g>
		<g>
			<polygon style="fill:#474EBB;" points="229.598,348.5 206.245,357.698 168.064,389.334 150.609,332.608 129.337,336.426 
				142.973,405.698 165.336,425.879 229.699,390.425 			"/>
		</g>
		<g>
			<g>
				<g>
					<g>
						<polygon style="fill:#3A332D;" points="207.591,699.373 206.974,705.478 218.046,713.089 224.509,707.739 219.281,700.881 
							208.209,693.269 						"/>
					</g>
				</g>
				<g>
					<g>
						<polygon style="fill:#3B3387;" points="207.868,512.74 205.992,531.279 222.597,594.974 207.179,697.327 218.528,701.244 
							248.454,601.316 253.204,572.246 253.031,510.704 						"/>
					</g>
				</g>
			</g>
			<g>
				<g>
					<g>
						<polygon style="fill:#3B3387;" points="295.157,533.402 271.285,704.91 260.434,704.91 258.481,594.974 238.732,517.81 						
							"/>
					</g>
				</g>
				<g>
					<g>
						<polygon style="fill:#3A332D;" points="260.496,703.554 260.496,709.715 272.23,715.875 278.097,709.715 272.23,703.554 
													"/>
					</g>
				</g>
			</g>
			<g>
				<g>
					<g>
						<path style="fill:#474EBB;" d="M208.467,489.996c9.268-62.391,5.958-107.828,6.438-120.304
							c0.48-12.476,9.027-18.951,9.032-18.953c3.75-0.856,7.015-3.33,10.803-4.306c25.624-6.605,39.6,13.439,49.192,35.057
							c11.818,26.636,21.747,54.161,29.774,82.239c7.045,24.642,14.105,49.507,17.06,75.081c1.219,10.552,2.236,20.559-9.041,25.215
							c-17.97,7.418-38.165,7.256-57.146,9.635c-21.803,2.732-43.635,4.728-65.583,5.663
							C187.538,579.812,199.199,552.387,208.467,489.996z"/>
					</g>
				</g>
			</g>
		</g>
		<g>
			<polygon style="fill:#EFBFA5;" points="133.49,335.681 123.883,326.063 127.155,309.154 136.428,309.154 139.155,323.881 
				143.861,326.709 143.861,333.819 			"/>
		</g>
		<g>
			<polygon style="fill:#474EBB;" points="247.153,345.153 271.698,349.517 316,392.374 355.714,378.435 368.483,394.715 
				315.333,425.879 259.153,389.88 			"/>
		</g>
		<g>
			<polygon style="fill:#3B3387;" points="253.204,346.456 257.721,412.805 223.705,349.734 233.626,346.191 240.713,344.065 			"/>
		</g>
		<g>
			<g>
				<path style="fill:#EFBFA5;" d="M254.399,308.359c-8.455-18.416-31.73-9.089-34.757,8.278c-1.721,9.876,3.517,27.038,15.308,27.2
					c0.594,1.669,1.612,4.821,3.202,5.64c1.722,0.887,5.884-1.4,7.529-2.238c0.456-0.233,0.928-0.497,1.191-0.937
					c0.33-0.55,0.11-1.749-0.206-3.06c1.26-0.406,2.51-0.982,3.737-1.753c5.148-3.237,7.917-9.444,8.189-15.527
					C258.862,319.878,256.94,313.893,254.399,308.359z"/>
			</g>
		</g>
		<g>
			<g>
				<path style="fill:#292949;" d="M244.192,288.997c0,0,4.933,9.901-7.735,16.139c-12.668,6.238-18.761,18.878-13.702,29.366
					c5.059,10.488,16.981,16.18,12.465,20.393c-4.517,4.213-24.453,6.075-24.453,6.075s-21.335-36.116-9.81-56.906
					C212.481,283.276,235.043,277.052,244.192,288.997z"/>
			</g>
		</g>
	</g>
	<g>
		<path style="fill:#353A85;" d="M170.308,423.14l3.74-2.06l2.707-11.354c2.019-8.466-0.171-16.954-5.186-23.296l-2.432,2.015
			c4.406,5.602,6.324,13.085,4.545,20.548L170.308,423.14z"/>
	</g>
	<g>
		<g>
			<path style="fill:#EFBFA5;" d="M636.504,285.129c0.708-3.371-1.452-12.244-4.519-14.34c-7.078-4.839-5.118,6.305-5.306,10.31
				c-1.381-0.49-2.701-1.006-4.122-1.216c-1.303-0.192,1.82,11.791,3.041,12.966c2.931,2.821,5.22,1.617,9.011,1.454
				C635.167,291.24,635.861,288.184,636.504,285.129z"/>
		</g>
		<polygon style="fill:#D67086;" points="710.118,352.461 649.166,336.393 636.04,289.837 622.634,292.339 626.078,332.881 
			632.503,351.953 683.206,391.097 		"/>
		<g>
			<g>
				<polygon style="fill:#5D66D3;" points="722.532,526.031 780.052,506.729 765.463,606.107 769.797,692.33 769.964,692.908 
					769.827,692.919 769.837,693.107 758.578,693.856 758.575,693.845 758.157,693.88 735.281,616.515 724.349,534.492 
					724.349,534.492 				"/>
				<polygon style="fill:#40495F;" points="759.049,697.794 770.703,697.833 773.395,707.744 773.099,707.823 773.173,707.833 
					753.594,718.689 744.411,719.445 743.548,708.95 746.072,707.209 				"/>
			</g>
			<g>
				<polygon style="fill:#5D66D3;" points="677.787,526.633 689.979,697.852 701.232,698.687 715.192,606.824 737.443,515.575 				
					"/>
				<polygon style="fill:#40495F;" points="689.895,701.817 674.729,709.852 675.926,716.933 702.706,713.678 701.428,703.487 				
					"/>
			</g>
			<g>
				<path style="fill:#D67086;" d="M795.738,554.744c1.201-28.944-24.65-120.986-24.65-120.986l0.004-0.002
					c-2.734-8.648-4.819-17.445-6.068-26.265c-0.889-6.279-19.703-77.638-18.456-77.729c-12.96,0.947-37.949-2.118-47.549,7.087
					c-0.274,0.263-0.536,0.536-0.784,0.82c-7.485,8.535-11.372,25.817-14.911,36.453c-4.649,13.972-8.219,28.302-10.658,42.823
					c-2.132,12.698-3.398,25.523-4.294,38.362c-0.77,11.037-0.159,22.013-0.535,32.871c-0.415,12.02-4.022,25.051-6.711,36.745
					c-2.708,11.776-6.146,23.412-10.902,34.534c12.867,5.695,27.199,7.233,41.27,7.287c14.071,0.054,28.124-1.304,42.193-1.088
					c11.897,0.183,23.941,1.479,35.598-0.906C778.555,562.854,787.113,558.727,795.738,554.744L795.738,554.744z"/>
			</g>
			<g>
				<path style="fill:#292949;" d="M702.198,299.498c-5.914,2.922-12.08,10.456-11.699,17.468c0.183,3.377,2.051,6,2.104,9.623
					c0.132,7.141,10.957,14.616,4.331,21.503c-3.406,3.54-8.73,4.233-13.617,4.724c-0.593,0.06-1.215,0.115-1.763-0.117
					c-0.904-0.381-1.343-1.452-1.323-2.433c0.02-0.98,0.399-1.912,0.696-2.846c3.109-9.774-1.586-21.172-2.14-31.131
					c-0.553-9.939,1.8-20.671,9.948-27.148c5.464,1.667,9.536,3.974,12.222,9.016L702.198,299.498z"/>
				<path style="fill:#EFBFA5;" d="M705.873,341.917c-6.738-0.849-12.465-5.821-15.604-11.844c-3.139-6.022-4.01-12.979-4.042-19.77
					c-0.107-22.599,27.857-24.124,39.099-7.991C735.124,316.372,725.465,344.385,705.873,341.917z"/>
				<path style="fill:#292949;" d="M739.728,344.673c-3.471-0.989-6.909-2.079-9.596-5.011c-4.343-4.74-5.639-13.665-7.686-19.57
					c-2.155-6.225-4.704-12.95-10.361-16.324c-3.695-2.204-7.415-2.034-11.463-1.309c-2.773,0.497-2.674,1.563-5.301,0.538
					c-2.014-0.786-4.209-3.88-5.012-5.784c-1.354-3.211-0.702-7.006,0.999-10.048c2.617-4.681,6.26-7.466,11.368-8.585
					c17.928-3.93,33.539,4.094,42.066,20.69c4.099,7.977,4.139,17.745,8.339,25.372c2.593,4.709,6.468,7.424,8.823,12.518
					c6.109,13.218,17.262,29.468,19.494,43.937c0.083,0.535,0.135,1.137-0.193,1.567c-0.669,0.877-2.055,0.24-2.922-0.442
					c-5.063-3.983-10.125-7.965-15.188-11.948c-1.988-1.564-4.003-3.156-5.483-5.207c-3.685-5.107-3.774-12.631-8.723-16.526
					C746.187,346.417,742.943,345.588,739.728,344.673z"/>
			</g>
			<g>
				<g>
					<path style="fill:#EFBFA5;" d="M822.987,317.147c2.971-1.744,8.083-9.31,7.572-12.99c-1.18-8.492-8.108,0.454-11.198,3.009
						c-0.566-1.352-1.072-2.675-1.873-3.868c-0.734-1.094-7.501,9.278-7.549,10.972c-0.116,4.066,2.315,4.95,4.985,7.646
						C817.566,320.269,820.294,318.727,822.987,317.147z"/>
				</g>
				<polygon style="fill:#D67086;" points="730.037,389.53 795.115,378.702 825.083,317.931 813.169,308.115 781.458,350.196 
					748.325,348.788 717.656,350.117 				"/>
			</g>
		</g>
	</g>
	<g>
		<g>
			<path style="fill:#B0BABC;" d="M559.619,375.879l-0.731,4.85L559.619,375.879z"/>
		</g>
	</g>
	<g>
		<g>
			<path style="fill:#292949;" d="M596.015,706.85l-262.432,2.289c-5.445,0.047-9.897-4.328-9.945-9.773l-4.094-469.419
				c-0.048-5.445,4.328-9.897,9.773-9.944l262.432-2.289c5.445-0.048,9.897,4.328,9.945,9.773l4.094,469.419
				C605.836,702.35,601.46,706.803,596.015,706.85z"/>
		</g>
		
			<rect x="342.332" y="244.304" transform="matrix(1 -0.0087 0.0087 1 -3.841 4.05)" style="fill:#D67086;" width="240.304" height="396.328"/>
		<path style="fill:#EED5D5;" d="M489.973,688.015l-50.692,0.442c-3.441,0.03-6.255-2.735-6.285-6.176l-0.072-8.261
			c-0.03-3.441,2.735-6.255,6.176-6.285l50.692-0.442c3.441-0.03,6.255,2.735,6.285,6.176l0.072,8.261
			C496.18,685.171,493.414,687.985,489.973,688.015z"/>
	</g>
	<g>
		<g>
			<g>
				<path style="fill:#353A85;" d="M167.001,588.742c-0.878,0.052-1.633-0.618-1.685-1.498l-2.394-40.115
					c-0.8-13.404-12.338-23.661-25.721-22.862c-13.383,0.799-23.619,12.354-22.819,25.759l2.394,40.115
					c0.053,0.88-0.617,1.635-1.495,1.688c-0.878,0.052-1.633-0.618-1.685-1.498l-2.394-40.115
					c-0.905-15.161,10.673-28.23,25.81-29.134c15.136-0.903,28.186,10.697,29.091,25.858l2.394,40.115
					C168.548,587.934,167.879,588.69,167.001,588.742z"/>
			</g>
			<polygon style="fill:#C9B3B3;" points="202.452,704.21 195.628,696.698 197.72,568.455 202.825,571.347 211.023,572.601 			"/>
			<polygon style="fill:#C9B3B3;" points="202.825,571.347 203.941,672.704 211.023,572.601 			"/>
			<polygon style="fill:#968080;" points="74.85,575.787 197.812,568.449 198.536,696.815 72.279,702.603 			"/>
			<polygon style="fill:#E5CFCF;" points="228.901,702.02 99.096,713.544 92.443,579.859 211.087,572.641 			"/>
			<polygon style="fill:#C9B3B3;" points="99.096,713.544 72.279,702.603 74.85,575.787 84.801,577.228 92.443,579.859 			"/>
			<polygon style="opacity:0.1;fill:#0F0F0F;" points="84.801,577.228 87.665,693.302 99.192,713.538 92.499,579.628 			"/>
			<polygon style="opacity:0.15;fill:#0F0F0F;" points="72.265,702.638 87.665,693.302 99.192,713.538 			"/>
			<g>
				<path style="fill:#292949;" d="M126.74,594.487c-0.105-1.759-1.614-3.101-3.37-2.996c-1.756,0.105-3.095,1.616-2.99,3.375
					c0.105,1.759,1.614,3.1,3.37,2.995C125.506,597.757,126.845,596.246,126.74,594.487z"/>
				<g>
					<path style="fill:#C5BEAB;" d="M125.377,594.568c-0.06-1.005-0.922-1.772-1.926-1.712c-1.004,0.06-1.769,0.923-1.709,1.929
						c0.06,1.005,0.922,1.772,1.926,1.712C124.672,596.437,125.437,595.573,125.377,594.568z"/>
				</g>
			</g>
			<g>
				<path style="fill:#292949;" d="M178.49,591.398c-0.105-1.759-1.614-3.101-3.37-2.996c-1.756,0.105-3.095,1.616-2.99,3.375
					c0.105,1.759,1.614,3.1,3.37,2.995C177.256,594.669,178.594,593.158,178.49,591.398z"/>
				<g>
					<path style="fill:#C5BEAB;" d="M177.127,591.48c-0.06-1.005-0.922-1.772-1.926-1.712c-1.004,0.06-1.769,0.924-1.709,1.929
						c0.06,1.005,0.922,1.772,1.926,1.712C176.422,593.349,177.187,592.485,177.127,591.48z"/>
				</g>
			</g>
			<g>
				<path style="fill:#353A85;" d="M175.372,592.892c-0.878,0.052-1.633-0.618-1.685-1.498l-2.394-40.115
					c-0.8-13.404-12.338-23.66-25.721-22.862c-13.383,0.799-23.619,12.354-22.819,25.758l2.394,40.115
					c0.052,0.879-0.617,1.635-1.495,1.688c-0.878,0.052-1.632-0.618-1.685-1.498l-2.394-40.115
					c-0.905-15.161,10.673-28.231,25.81-29.134c15.136-0.903,28.186,10.697,29.091,25.858l2.394,40.115
					C176.92,592.084,176.25,592.84,175.372,592.892z"/>
			</g>
		</g>
	</g>
	<g>
		<g>
			<g>
				<path style="fill:#353A85;" d="M204.307,626.598c0.73,0.024,1.341-0.549,1.365-1.28l1.101-33.34
					c0.368-11.141,9.716-19.905,20.838-19.538c11.122,0.367,19.872,9.73,19.504,20.87l-1.101,33.34
					c-0.024,0.731,0.548,1.343,1.278,1.367c0.73,0.024,1.341-0.549,1.365-1.28l1.101-33.34c0.416-12.6-9.48-23.19-22.059-23.605
					c-12.58-0.416-23.152,9.498-23.569,22.098l-1.101,33.34C203.005,625.962,203.577,626.574,204.307,626.598z"/>
			</g>
			<polygon style="fill:#999999;" points="177.438,723.195 182.935,716.81 178.369,610.443 174.197,612.955 167.421,614.177 			"/>
			<polygon style="fill:#999999;" points="174.197,612.955 175.508,697.084 167.421,614.177 			"/>
			<polygon style="fill:#666666;" points="280.486,613.815 178.292,610.44 180.525,716.972 285.418,718.988 			"/>
			<polygon style="fill:#BABCBE;" points="155.443,721.961 263.407,728.658 265.977,617.582 167.369,614.211 			"/>
			<polygon style="fill:#999999;" points="263.407,728.658 285.418,718.988 280.486,613.815 272.261,615.23 265.977,617.582 			"/>
			<polygon style="opacity:0.1;fill:#0F0F0F;" points="272.261,615.23 272.445,711.609 263.327,728.656 265.926,617.391 			"/>
			<polygon style="opacity:0.15;fill:#0F0F0F;" points="285.43,719.017 272.445,711.609 263.327,728.656 			"/>
			<g>
				<path style="fill:#292949;" d="M237.841,630.477c0.048-1.462,1.271-2.608,2.73-2.56s2.604,1.273,2.556,2.735
					c-0.048,1.462-1.271,2.608-2.73,2.56C238.937,633.163,237.793,631.939,237.841,630.477z"/>
				<g>
					<path style="fill:#C4B9A1;" d="M238.974,630.514c0.028-0.836,0.726-1.49,1.56-1.463c0.834,0.028,1.488,0.727,1.46,1.563
						c-0.028,0.836-0.726,1.49-1.56,1.463C239.6,632.049,238.947,631.349,238.974,630.514z"/>
				</g>
			</g>
			<g>
				<path style="fill:#292949;" d="M194.832,629.056c0.048-1.462,1.271-2.608,2.73-2.56c1.46,0.048,2.604,1.273,2.556,2.735
					c-0.048,1.462-1.271,2.608-2.73,2.56S194.784,630.518,194.832,629.056z"/>
				<g>
					<path style="fill:#C4B9A1;" d="M195.965,629.094c0.028-0.836,0.726-1.491,1.56-1.463c0.834,0.028,1.488,0.727,1.46,1.563
						c-0.028,0.836-0.726,1.49-1.56,1.463C196.591,630.629,195.937,629.929,195.965,629.094z"/>
				</g>
			</g>
			<g>
				<path style="fill:#353A85;" d="M197.452,630.227c0.73,0.024,1.341-0.549,1.365-1.28l1.101-33.34
					c0.368-11.141,9.716-19.905,20.838-19.538c11.122,0.367,19.872,9.73,19.504,20.87l-1.101,33.34
					c-0.024,0.731,0.548,1.343,1.278,1.367c0.73,0.024,1.341-0.549,1.365-1.28l1.101-33.34c0.416-12.6-9.48-23.19-22.059-23.605
					c-12.58-0.415-23.152,9.498-23.568,22.098l-1.101,33.34C196.15,629.591,196.722,630.203,197.452,630.227z"/>
			</g>
		</g>
	</g>
	<g>
		<path style="fill:#7597D3;" d="M557.398,658.993c0,0-12.998,9.522-12.83,17.934c0,0-1.384,17.726,2.134,24.707l19.554,17.81
			l36.121-2.316l11.661-51.189L557.398,658.993z"/>
		<path style="fill:#8CABEF;" d="M597.042,670.372c0,0-15.598-3.665-20.938,6.974l-10.627,19.626l18.727,24.942l156.813-0.455
			l-0.287-15.451l-60.844-14.446c4.033-2.711,7.404-7.001,9.432-11.364c3.634-7.821,0.797-13.611-2.128-20.96
			c-0.897-2.254-5.174-14.748-8.848-13.767C678.327,645.477,597.042,670.372,597.042,670.372z"/>
		<g>
			<g>
				<polygon style="fill:#DBA086;" points="513.445,476.479 506.897,464.805 511.765,461.789 518.018,468.79 519.659,466.296 
					524.044,476.968 519.408,480.786 				"/>
			</g>
			<g>
				<polygon style="fill:#353A85;" points="608.556,503.49 563.567,515.575 523.771,472.856 514.958,480.903 551.608,551.549 
					606.566,540.406 				"/>
			</g>
		</g>
		<g>
			<g>
				<path style="fill:#353A85;" d="M564.223,630.455c9.789-27.256,11.68-56.15,15.201-84.76c1.043-8.441,2.139-17.068,5.915-24.689
					c4.336-8.751,11.179-13.222,19.057-15.529c10.027-2.937,21.728-2.368,32.063-2.66c9.797,0.01,17.256,37.084,26.658,55.243
					c5.762,11.129,11.751,21.001,15.49,33.058c3.588,11.571,7.012,23.339,8.928,35.319c2.893,18.088,11.382,30.929,2.685,36.766
					c-0.787,0.232-1.546,0.463-2.266,0.695c-14.103,4.539-28.646,7.765-43.397,9.225c-13.085,1.295-26.327,1.177-39.368-0.539
					c-17.851-2.349-35.119-5.444-50.602-15.298C557.798,648.344,561.01,639.4,564.223,630.455z"/>
			</g>
		</g>
		<g>
			<g>
				<polygon style="fill:#DBA086;" points="640.945,636.808 632.411,647.119 627.845,643.664 632.126,635.309 629.208,634.677 
					637.585,626.743 642.817,629.694 				"/>
			</g>
			<g>
				<polygon style="fill:#353A85;" points="635.226,527.569 659.295,574.04 633.848,628.478 644.528,633.803 688.817,576.19 
					651.852,515.957 				"/>
			</g>
		</g>
		<g>
			<path style="fill:#DBA086;" d="M642.139,475.591c-5.027-17.013-29.4-23.675-35.747-4.299c-1.907,5.823-3.144,12.025-2.173,18.075
				c0.971,6.05,4.457,11.938,9.983,14.585c0.032,0.015,0.063,0.028,0.095,0.043c-0.27,1.553-0.54,3.106-0.809,4.659
				c-0.058,0.334-0.11,0.702,0.07,0.99c0.204,0.327,0.628,0.425,1.007,0.494c1.853,0.339,3.707,0.677,5.56,1.016
				c0.919,0.168,1.876,0.334,2.774,0.079c1.966-0.56,2.851-2.865,3.003-4.904c0.036-0.487,0.048-0.981,0.056-1.475
				C637.104,501.435,645.425,486.712,642.139,475.591z"/>
			<g>
				<path style="fill:#2C2966;" d="M613.149,445.875c-4.476-0.815-8.448,3.421-12.673,5.576c-3.514,1.793-7.445,2.17-11.075,3.633
					c-3.63,1.463-7.255,4.644-7.464,8.767c-3.565-2.005-7.429-4.069-11.518-3.418c-4.089,0.651-8.019,5.379-6.53,9.43
					c1.333,3.628,5.977,4.624,7.416,8.199c2.277,5.656-4.652,14.098-0.237,17.944c1.062,0.925,2.538,1.188,3.58,2.138
					c1.294,1.18,1.658,3.147,2.194,4.902c2.429,7.955,10.193,13.353,18.061,12.557c4.945-2.123,8.983-6.711,10.899-12.052
					c2.31-6.437-1.097-8.822-1.485-14.948c-0.424-6.695,1.928-13.694,6.299-18.74c2.844-3.283,6.852-6.063,10.999-6.323
					c1.686-0.105,1.112,1.279,3.045,0.041c0.83-0.532,2.006-2.607,2.27-3.611C622.523,456.183,619.038,446.948,613.149,445.875z"/>
				<path style="fill:#2C2966;" d="M661.512,456.113c2.299,0.721,4.822,0.709,7.001,1.75c3.273,1.564,2.959,5.003,3.802,8.027
					c0.932,3.348,2.3,7.847,4.402,10.496c1.515,1.909,3.685,3.04,5.557,4.536c1.872,1.496,3.567,3.669,3.443,6.252
					c-0.118,2.447-1.836,4.591-2.157,7.028c-0.412,3.635,0.158,5.522-1.088,9.211c-0.642,1.903-1.358,3.918-2.843,5.182
					c-1.958,1.666-4.665,1.544-7.03,1.069c-2.365-0.475-4.802-1.215-7.173-0.503c-5.142,1.545-4.36,6.72-5.855,10.987
					c-2.274,6.494-10.007,10.075-15.75,7.552c-4.87-2.139-7.54-7.962-7.132-13.611c0.204-2.828,1.417-5.431,1.592-8.262
					c0.168-2.731-1.249-6.567,1.299-8.656c0.621-0.509,1.403-0.762,1.966-1.347c0.454-0.473,0.719-1.117,0.892-1.764
					c0.601-2.242,0.184-4.722-1.091-6.496c-0.917-1.274-2.259-2.227-2.797-3.747c-0.616-1.74-0.019-3.733,0.157-5.628
					c0.425-4.582-1.94-9.166-5.706-11.063c-2.482-1.25-4.73-2.014-6.875-3.862c-0.327-0.281-5.194-4.873-5.355-3.921
					c0.279-1.658,1.299-3.084,2.328-4.389c1.691-2.145,3.56-4.226,5.884-5.468c7.515-4.015,7.549,5.887,13.513,4.779
					c1.439-0.267,2.557-1.542,3.868-2.281c2.477-1.397,5.442-0.772,7.89,0.415C656.7,453.587,658.922,455.3,661.512,456.113z"/>
			</g>
		</g>
	</g>
	<g>
		<g>
			<g>
				<path style="fill:#353A85;" d="M845.832,572.347c0.943-0.001,1.707-0.767,1.706-1.712l-0.035-43.077
					c-0.012-14.394,11.67-26.115,26.041-26.126c14.371-0.012,26.072,11.69,26.083,26.084l0.035,43.077
					c0.001,0.945,0.766,1.71,1.709,1.709c0.943-0.001,1.707-0.767,1.706-1.712l-0.035-43.077
					c-0.013-16.28-13.247-29.515-29.501-29.501c-16.254,0.013-29.466,13.269-29.453,29.55l0.035,43.077
					C844.124,571.583,844.889,572.348,845.832,572.347z"/>
			</g>
			<polygon style="fill:#C9B3B3;" points="815.374,698.189 822.19,689.71 811.651,552.629 806.376,556.054 797.685,557.926 			"/>
			<polygon style="fill:#C9B3B3;" points="806.376,556.054 811.742,664.575 797.685,557.926 			"/>
			<polygon style="fill:#968080;" points="943.592,552.521 811.552,552.629 819.086,690.023 954.552,688.044 			"/>
			<polygon style="fill:#E5CFCF;" points="786.933,697.557 926.566,701.486 925.032,558.017 797.619,557.973 			"/>
			<polygon style="fill:#C9B3B3;" points="926.566,701.486 954.552,688.044 943.592,552.521 933.039,554.706 925.032,558.017 			"/>
			<polygon style="opacity:0.1;fill:#0F0F0F;" points="933.039,554.706 937.486,679.088 926.463,701.486 924.957,557.773 			"/>
			<polygon style="opacity:0.15;fill:#0F0F0F;" points="954.568,688.081 937.486,679.088 926.463,701.486 			"/>
			<g>
				<path style="fill:#292949;" d="M889.282,575.888c-0.002-1.889,1.526-3.422,3.412-3.423c1.886-0.002,3.416,1.529,3.418,3.418
					c0.002,1.889-1.526,3.422-3.412,3.423C890.814,579.307,889.284,577.777,889.282,575.888z"/>
				<g>
					<path style="fill:#C5BEAB;" d="M890.746,575.886c-0.001-1.08,0.872-1.955,1.95-1.956c1.078-0.001,1.952,0.874,1.953,1.953
						c0.001,1.08-0.872,1.955-1.95,1.956C891.621,577.84,890.747,576.966,890.746,575.886z"/>
				</g>
			</g>
			<g>
				<path style="fill:#292949;" d="M833.712,575.933c-0.001-1.889,1.526-3.422,3.412-3.423c1.886-0.002,3.416,1.529,3.418,3.418
					c0.002,1.889-1.526,3.422-3.412,3.423C835.244,579.352,833.713,577.822,833.712,575.933z"/>
				<g>
					<path style="fill:#C5BEAB;" d="M835.175,575.932c-0.001-1.08,0.872-1.955,1.95-1.956c1.078-0.001,1.952,0.874,1.953,1.953
						c0.001,1.08-0.872,1.955-1.95,1.956C836.051,577.886,835.176,577.011,835.175,575.932z"/>
				</g>
			</g>
			<g>
				<path style="fill:#353A85;" d="M837.144,577.329c0.943-0.001,1.707-0.767,1.706-1.712l-0.035-43.077
					c-0.012-14.394,11.67-26.115,26.041-26.126c14.371-0.012,26.072,11.69,26.083,26.084l0.035,43.077
					c0.001,0.945,0.766,1.71,1.709,1.709c0.943-0.001,1.707-0.767,1.706-1.712l-0.035-43.077
					c-0.013-16.28-13.247-29.515-29.501-29.502c-16.254,0.013-29.466,13.27-29.453,29.55l0.035,43.077
					C835.436,576.565,836.201,577.33,837.144,577.329z"/>
			</g>
		</g>
	</g>
	<g>
		<g>
			<g>
				<path style="fill:#353A85;" d="M815.615,607.534c-0.837,0.078-1.58-0.538-1.658-1.377l-3.584-38.249
					c-1.198-12.781-12.553-22.207-25.313-21.011c-12.76,1.196-22.167,12.567-20.969,25.348l3.584,38.249
					c0.079,0.839-0.537,1.582-1.374,1.661c-0.837,0.078-1.58-0.538-1.659-1.377l-3.584-38.249
					c-1.355-14.456,9.285-27.317,23.717-28.669c14.432-1.352,27.276,9.308,28.63,23.764l3.584,38.249
					C817.068,606.712,816.452,607.456,815.615,607.534z"/>
			</g>
			<polygon style="fill:#999999;" points="853.219,716.708 846.456,709.752 844.309,587.158 849.279,589.756 857.153,590.69 			"/>
			<polygon style="fill:#999999;" points="849.279,589.756 853.623,686.559 857.153,590.69 			"/>
			<polygon style="fill:#666666;" points="727.154,598.136 844.396,587.15 849.239,709.77 728.797,719.381 			"/>
			<polygon style="fill:#BABCBE;" points="878.418,713.761 754.773,728.968 744.094,601.458 857.216,590.726 			"/>
			<polygon style="fill:#999999;" points="754.773,728.968 728.797,719.381 727.154,598.136 736.707,599.191 744.094,601.458 			"/>
			<polygon style="opacity:0.1;fill:#0F0F0F;" points="736.707,599.191 743.197,709.998 754.865,728.959 744.14,601.235 			"/>
			<polygon style="opacity:0.15;fill:#0F0F0F;" points="728.786,719.416 743.197,709.998 754.865,728.959 			"/>
			<g>
				<path style="fill:#292949;" d="M777.334,614.324c-0.157-1.677-1.642-2.91-3.317-2.753c-1.675,0.157-2.905,1.644-2.748,3.322
					c0.157,1.677,1.642,2.91,3.317,2.753C776.262,617.489,777.492,616.002,777.334,614.324z"/>
				<g>
					<path style="fill:#C4B9A1;" d="M776.035,614.446c-0.09-0.959-0.938-1.663-1.896-1.573c-0.957,0.09-1.66,0.939-1.57,1.898
						c0.09,0.959,0.938,1.663,1.895,1.573C775.422,616.254,776.125,615.405,776.035,614.446z"/>
				</g>
			</g>
			<g>
				<path style="fill:#292949;" d="M826.677,609.701c-0.157-1.677-1.642-2.91-3.317-2.753c-1.675,0.157-2.905,1.644-2.748,3.321
					c0.157,1.677,1.642,2.91,3.317,2.753C825.604,612.865,826.834,611.378,826.677,609.701z"/>
				<g>
					<path style="fill:#C4B9A1;" d="M825.378,609.823c-0.09-0.958-0.938-1.663-1.895-1.573c-0.957,0.09-1.66,0.94-1.57,1.898
						c0.09,0.958,0.938,1.663,1.895,1.573C824.765,611.631,825.468,610.781,825.378,609.823z"/>
				</g>
			</g>
			<g>
				<path style="fill:#353A85;" d="M823.747,611.229c-0.837,0.078-1.58-0.538-1.658-1.376l-3.584-38.249
					c-1.198-12.781-12.553-22.207-25.313-21.011c-12.76,1.196-22.167,12.567-20.969,25.348l3.584,38.249
					c0.079,0.839-0.537,1.582-1.374,1.661c-0.837,0.078-1.58-0.538-1.658-1.377l-3.584-38.249
					c-1.355-14.456,9.285-27.317,23.717-28.669c14.432-1.352,27.275,9.308,28.63,23.764l3.584,38.249
					C825.2,610.407,824.585,611.15,823.747,611.229z"/>
			</g>
		</g>
	</g>
	<g>
		<path style="fill:#FFFFFF;" d="M376.281,490.223c-4.374-0.535-8.271-1.819-11.691-3.853l1.757-9.942
			c3.505,1.878,6.994,3.065,10.467,3.561c3.471,0.497,7.11,0.328,10.918-0.504c4.204-0.918,7.275-2.469,9.208-4.655
			c1.934-2.184,2.568-4.796,1.904-7.839c-0.565-2.587-2.065-4.344-4.5-5.27c-2.435-0.925-6.229-1.469-11.384-1.631
			c-8.025-0.213-14.095-1.429-18.21-3.649c-4.116-2.218-6.796-6.176-8.04-11.87c-0.89-4.076-0.716-7.91,0.523-11.503
			c1.239-3.591,3.436-6.682,6.593-9.27c3.154-2.586,7.062-4.39,11.722-5.408c4.262-0.931,8.469-1.087,12.622-0.469
			c4.154,0.618,7.734,1.955,10.744,4.009l-1.672,9.924c-6.473-3.738-12.976-4.894-19.51-3.467c-3.92,0.857-6.816,2.456-8.686,4.795
			c-1.871,2.341-2.459,5.097-1.767,8.266c0.594,2.718,2.054,4.569,4.383,5.552c2.327,0.983,6.069,1.556,11.225,1.716
			c5.354,0.255,9.794,0.828,13.323,1.717c3.528,0.892,6.417,2.396,8.665,4.514c2.249,2.119,3.783,5.056,4.603,8.808
			c0.905,4.142,0.726,7.96-0.534,11.454c-1.261,3.497-3.526,6.483-6.795,8.959c-3.27,2.476-7.375,4.255-12.319,5.334
			C385.171,490.519,380.654,490.758,376.281,490.223z"/>
		<path style="fill:#FFFFFF;" d="M469.757,471.127l-9.591-14.886l-29.66,6.479l-2.596,17.549l-11.08,2.42l12.35-75.098l8.949-1.955
			l42.624,63.09L469.757,471.127z M432.049,452.213l22.331-4.878l-17.631-27.163L432.049,452.213z"/>
		<path style="fill:#FFFFFF;" d="M487.314,467.292l-15.094-69.104l10.994-2.402l12.848,58.816l28.381-6.199l2.247,10.288
			L487.314,467.292z"/>
		<path style="fill:#FFFFFF;" d="M535.043,456.867l-15.094-69.104l40.569-8.862l2.163,9.9l-29.831,6.516l4.176,19.12l28.041-6.125
			l2.163,9.899l-28.041,6.125l4.431,20.284l29.831-6.516l2.163,9.9L535.043,456.867z"/>
	</g>
	<g>
		<g>
			<g>
				<polygon style="fill:#9D9D9E;" points="663.489,147.8 653.325,146.334 660.285,98.058 701.501,99.198 701.216,109.463 
					669.144,108.577 				"/>
			</g>
			<g id="XMLID_4802_">
				<g id="XMLID_4823_">
					<g id="XMLID_4824_">
						<g id="XMLID_5136_">
							<g id="XMLID_5137_">
								<path id="XMLID_5138_" style="fill:#BABCBE;" d="M631.881,261.624H489.327c-10.087,0-18.314-8.451-18.5-18.916
									l-13.673-99.539c-0.194-1.41,0.232-2.835,1.167-3.907c0.936-1.073,2.289-1.689,3.713-1.689h197.141
									c1.424,0,2.777,0.616,3.713,1.689c0.936,1.072,1.362,2.497,1.168,3.907l-13.673,99.539
									C650.197,253.173,646.296,261.558,631.881,261.624z"/>
							</g>
						</g>
					</g>
				</g>
			</g>
			<circle style="fill:#3B3387;" cx="509.206" cy="285.245" r="18.349"/>
			<circle style="fill:#3B3387;" cx="613.813" cy="285.245" r="18.349"/>
			<path style="fill:#FFFFFF;" d="M639.877,172.138l1.595-7.682H612.22l2.036-14.631h-8.15l-2.036,14.631h-38.867v-14.631h-8.081
				v14.631h-38.3l-2.037-14.631h-8.15l2.036,14.631h-28.825l1.595,7.682h28.299l3.562,25.591h-26.55l1.594,7.682h26.025
				l3.562,25.591h-24.276l1.594,7.682h23.75l1.434,10.304h8.15l-1.434-10.304h27.969v10.304h8.081v-10.304h28.536l-1.434,10.304
				h8.15l1.433-10.304h24.177l1.594-7.682h-24.702l3.562-25.591h26.451l1.594-7.682h-26.977l3.562-25.591H639.877z M557.123,231.003
				h-29.038l-3.562-25.591h32.6V231.003z M557.123,197.73h-33.669l-3.561-25.591h37.231V197.73z M594.81,231.003h-29.606v-25.591
				h33.167L594.81,231.003z M599.44,197.73h-34.236v-25.591h37.797L599.44,197.73z"/>
		</g>
		<path style="fill:#D67086;" d="M712.138,113.124l-31.879-1.768c-2.952-0.164-5.213-2.69-5.049-5.642l0.355-6.406
			c0.164-2.952,2.69-5.213,5.642-5.049l31.88,1.768c2.952,0.164,5.213,2.69,5.049,5.642l-0.355,6.406
			C717.616,111.028,715.09,113.288,712.138,113.124z"/>
	</g>
</g>
</svg>
